<svg xmlns="http://www.w3.org/2000/svg" viewBox="0 0 50 50"><defs><style>.cls-1{fill:#e12726;}.cls-2{fill:#fff;}</style></defs><g id="Layer_2" data-name="Layer 2"><g id="Layer_1-2" data-name="Layer 1"><circle class="cls-1" cx="25" cy="25" r="25"/><path class="cls-2" d="M41.41,29.32c0,.11-.07.22-.11.33a2.1,2.1,0,0,1-1.9,1.52c-.72,0-1.44,0-2.16,0h-.45c0,.64,0,1.26,0,1.88a1.51,1.51,0,0,1-1,1.48,1.54,1.54,0,0,1-1.58-.23l-3.83-2.9a1,1,0,0,0-.7-.23c-.35,0-.71,0-1.12,0v.42c0,.74,0,1.48,0,2.22a2.21,2.21,0,0,1-2.32,2.36c-1.14,0-2.28,0-3.42,0-.74,0-1.47,0-2.21,0a.82.82,0,0,0-.46.16c-1.31,1-2.62,2-3.92,2.94a1.54,1.54,0,0,1-1.69.21,1.48,1.48,0,0,1-.91-1.41c0-.62,0-1.24,0-1.9h-.39c-.75,0-1.5,0-2.25,0a2.16,2.16,0,0,1-2-2.11c0-3.41,0-6.81,0-10.22a2.19,2.19,0,0,1,2.25-2.14h4.15c0-.16,0-.29,0-.42V13.36a2.2,2.2,0,0,1,1.48-2.23,2.67,2.67,0,0,1,.84-.12H32.66A2.21,2.21,0,0,1,35,13.32c0,1,0,2,0,3v.37h4a2.22,2.22,0,0,1,2.43,1.81l0,0Zm-6.54,3.11a.43.43,0,0,0,0-.12V30.44c0-.8.35-1.14,1.17-1.14H39c.44,0,.52-.07.52-.51V19.13c0-.47-.07-.53-.53-.53H24.3c-.49,0-.55,0-.55.54V28.7c0,.54.05.6.6.6h5.79a1.55,1.55,0,0,1,1,.34c.46.37.94.72,1.41,1.07Zm-19.35,5a2.13,2.13,0,0,0,.26-.18c1.14-.86,2.28-1.7,3.41-2.58a1.81,1.81,0,0,1,1.19-.39c1.92,0,3.84,0,5.76,0,.45,0,.52-.08.53-.54V31.19H24.18a2.23,2.23,0,0,1-2.33-2.35V23.62l-.22,0H11.35c-.37,0-.45.09-.45.48v9.68c0,.46.07.54.54.54h3a1,1,0,0,1,1,1.06C15.53,36,15.52,36.71,15.52,37.44ZM33.07,16.7c0-.13,0-.23,0-.32v-3c0-.44-.07-.51-.52-.51H17.85c-.46,0-.52.06-.52.54v7.91c0,.11,0,.22,0,.33h4.5c0-.86,0-1.69,0-2.52a2.32,2.32,0,0,1,2.48-2.48c2.77.05,5.55,0,8.32,0Z"/></g></g></svg>