<svg xmlns="http://www.w3.org/2000/svg" viewBox="0 0 50 50"><defs><style>.cls-1{fill:#e12726;}.cls-2{fill:#fff;}</style></defs><g id="Layer_2" data-name="Layer 2"><g id="Layer_1-2" data-name="Layer 1"><circle class="cls-1" cx="25" cy="25" r="25"/><path class="cls-2" d="M13.39,14.86V13a1,1,0,0,1,1.1-1.11c1.4,0,2.81,0,4.21,0A6.89,6.89,0,0,1,25,15.87c0,.11.11.21.14.28a21.17,21.17,0,0,1,1.26-1.83,6.74,6.74,0,0,1,5.21-2.4c1.42,0,2.83,0,4.24,0A1,1,0,0,1,37,13.05v1.81h1.86A1,1,0,0,1,40,16V32.44a1,1,0,0,1-1.16,1.15c-1.93,0-3.87,0-5.8,0A9.8,9.8,0,0,0,27.76,35a3.26,3.26,0,0,0-1.57,1.88.88.88,0,0,1-.9.62.91.91,0,0,1-1-.56,4.34,4.34,0,0,0-2.87-2.61,10,10,0,0,0-3.86-.76H11.63c-.82,0-1.19-.37-1.19-1.18V16c0-.8.36-1.17,1.16-1.17Zm12.78,16.5.15-.17a6.29,6.29,0,0,1,4.48-2.5c1.22-.1,2.46,0,3.68-.06H35V13.88H31.46a4.15,4.15,0,0,0-2.6.86A6.76,6.76,0,0,0,26.36,19a11.49,11.49,0,0,0-.22,1.17c0,.3,0,.61,0,.91V31.36ZM15.38,13.89V28.63h3.45a6.52,6.52,0,0,1,5,2.29l.37.43V31c0-3.24,0-6.47,0-9.71,0-.53,0-1.06-.08-1.59a7.36,7.36,0,0,0-1.58-3.93,4.34,4.34,0,0,0-3.19-1.81C18,13.84,16.72,13.89,15.38,13.89ZM38,31.58V16.84H37V29.47a1,1,0,0,1-1.11,1.13H31.57a4.63,4.63,0,0,0-2.6.77,4.43,4.43,0,0,0-1.34,1.35l.26-.09a11.37,11.37,0,0,1,4-1c1.26-.06,2.54-.05,3.8-.06Zm-25.53,0h4.93a12.62,12.62,0,0,1,5.11,1,2.26,2.26,0,0,0,.32.12,4.71,4.71,0,0,0-3.85-2.13c-1.45,0-2.91,0-4.36,0-.82,0-1.18-.37-1.18-1.18V16.85h-1Z"/></g></g></svg>